<?xml version="1.0" encoding="UTF-8" standalone="no"?>
<!DOCTYPE svg PUBLIC "-//W3C//DTD SVG 1.1//EN" "http://www.w3.org/Graphics/SVG/1.1/DTD/svg11.dtd">
<svg version="1.1" xmlns="http://www.w3.org/2000/svg" xmlns:xlink="http://www.w3.org/1999/xlink" preserveAspectRatio="xMidYMid meet" viewBox="385.4365897768141 375.1960223079018 164.81496215055017 160.84403426331153" width="160.81" height="156.84"><defs><path d="M466.84 376.2C422.44 376.2 386.44 412.19 386.44 456.6C386.44 492.13 409.48 522.27 441.42 532.9C445.44 533.65 446.92 531.16 446.92 529.03C446.92 527.12 446.84 520.78 446.81 514.06C424.44 518.93 419.72 504.58 419.72 504.58C416.06 495.28 410.79 492.81 410.79 492.81C403.5 487.82 411.34 487.92 411.34 487.92C419.42 488.49 423.67 496.21 423.67 496.21C430.84 508.5 442.48 504.95 447.07 502.89C447.79 497.7 449.87 494.15 452.17 492.14C434.31 490.11 415.54 483.21 415.54 452.4C415.54 443.62 418.68 436.45 423.82 430.82C422.99 428.79 420.23 420.62 424.6 409.54C424.6 409.54 431.35 407.38 446.72 417.78C453.13 416 460.01 415.11 466.84 415.08C473.68 415.11 480.56 416 486.99 417.78C502.34 407.38 509.08 409.54 509.08 409.54C513.45 420.62 510.7 428.79 509.87 430.82C515.02 436.45 518.14 443.62 518.14 452.4C518.14 483.29 499.33 490.09 481.43 492.08C484.31 494.57 486.88 499.47 486.88 506.97C486.88 517.73 486.79 526.38 486.79 529.03C486.79 531.17 488.23 533.68 492.31 532.89C524.24 522.25 547.25 492.12 547.25 456.6C547.25 412.19 511.25 376.2 466.84 376.2" id="c4pppml0yf"></path><path d="M416.89 491.64C416.71 492.04 416.09 492.16 415.51 491.89C414.93 491.63 414.6 491.08 414.79 490.68C414.96 490.27 415.59 490.16 416.18 490.43C416.76 490.69 417.09 491.24 416.89 491.64C416.89 491.64 416.89 491.64 416.89 491.64" id="b4bifu7l2"></path><path d="M420.15 495.28C419.76 495.63 419.02 495.47 418.51 494.9C417.98 494.34 417.88 493.59 418.27 493.23C418.67 492.88 419.39 493.04 419.92 493.6C420.45 494.17 420.55 494.92 420.15 495.28C420.15 495.28 420.15 495.28 420.15 495.28" id="c2XFLsxerG"></path><path d="M423.32 499.91C422.83 500.25 422.02 499.93 421.52 499.21C421.03 498.5 421.03 497.64 421.53 497.3C422.03 496.95 422.83 497.26 423.33 497.97C423.82 498.7 423.82 499.56 423.32 499.91C423.32 499.91 423.32 499.91 423.32 499.91" id="aaSwJf9uS"></path><path d="M427.66 504.38C427.22 504.87 426.28 504.74 425.6 504.07C424.89 503.42 424.7 502.5 425.14 502.02C425.58 501.53 426.53 501.67 427.22 502.33C427.92 502.97 428.13 503.9 427.66 504.38C427.66 504.38 427.66 504.38 427.66 504.38" id="b16NjoSpBu"></path><path d="M433.65 506.98C433.46 507.61 432.56 507.89 431.64 507.63C430.74 507.35 430.14 506.61 430.32 505.98C430.51 505.34 431.42 505.05 432.34 505.33C433.25 505.61 433.84 506.34 433.65 506.98C433.65 506.98 433.65 506.98 433.65 506.98" id="b2XXwb63Go"></path><path d="M440.23 507.46C440.26 508.12 439.48 508.67 438.53 508.68C437.57 508.71 436.79 508.17 436.78 507.52C436.78 506.85 437.53 506.3 438.5 506.29C439.45 506.27 440.23 506.8 440.23 507.46C440.23 507.46 440.23 507.46 440.23 507.46" id="i3Qu9NxPqs"></path><path d="M446.36 506.42C446.47 507.06 445.81 507.73 444.86 507.91C443.93 508.08 443.06 507.68 442.94 507.04C442.83 506.37 443.5 505.71 444.44 505.54C445.39 505.37 446.24 505.76 446.36 506.42C446.36 506.42 446.36 506.42 446.36 506.42" id="aOgHfWWTY"></path></defs><g><g><use xlink:href="#c4pppml0yf" opacity="1" fill="#ffffff" fill-opacity="1"></use><g><use xlink:href="#c4pppml0yf" opacity="1" fill-opacity="0" stroke="#000000" stroke-width="1" stroke-opacity="0"></use></g></g><g><use xlink:href="#b4bifu7l2" opacity="1" fill="#ffffff" fill-opacity="1"></use><g><use xlink:href="#b4bifu7l2" opacity="1" fill-opacity="0" stroke="#000000" stroke-width="1" stroke-opacity="0"></use></g></g><g><use xlink:href="#c2XFLsxerG" opacity="1" fill="#ffffff" fill-opacity="1"></use><g><use xlink:href="#c2XFLsxerG" opacity="1" fill-opacity="0" stroke="#000000" stroke-width="1" stroke-opacity="0"></use></g></g><g><use xlink:href="#aaSwJf9uS" opacity="1" fill="#ffffff" fill-opacity="1"></use><g><use xlink:href="#aaSwJf9uS" opacity="1" fill-opacity="0" stroke="#000000" stroke-width="1" stroke-opacity="0"></use></g></g><g><use xlink:href="#b16NjoSpBu" opacity="1" fill="#ffffff" fill-opacity="1"></use><g><use xlink:href="#b16NjoSpBu" opacity="1" fill-opacity="0" stroke="#000000" stroke-width="1" stroke-opacity="0"></use></g></g><g><use xlink:href="#b2XXwb63Go" opacity="1" fill="#ffffff" fill-opacity="1"></use><g><use xlink:href="#b2XXwb63Go" opacity="1" fill-opacity="0" stroke="#000000" stroke-width="1" stroke-opacity="0"></use></g></g><g><use xlink:href="#i3Qu9NxPqs" opacity="1" fill="#ffffff" fill-opacity="1"></use><g><use xlink:href="#i3Qu9NxPqs" opacity="1" fill-opacity="0" stroke="#000000" stroke-width="1" stroke-opacity="0"></use></g></g><g><use xlink:href="#aOgHfWWTY" opacity="1" fill="#ffffff" fill-opacity="1"></use><g><use xlink:href="#aOgHfWWTY" opacity="1" fill-opacity="0" stroke="#000000" stroke-width="1" stroke-opacity="0"></use></g></g></g></svg>