<!--?xml version="1.0" encoding="utf-8"?-->
<!-- Generator: Adobe Illustrator 18.1.1, SVG Export Plug-In . SVG Version: 6.00 Build 0)  -->

<svg version="1.1" id="_x32_" xmlns="http://www.w3.org/2000/svg" xmlns:xlink="http://www.w3.org/1999/xlink" x="0px" y="0px" viewBox="0 0 512 512" style="width: 32px; height: 32px; opacity: 1;" xml:space="preserve">
<style type="text/css">
	.st0{fill:#4B4B4B;}
</style>
<g>
	<path class="st0" d="M212.901,125.509c-11.579-15.721-12.58-36.852-2.538-53.586l31.058-51.77c2.469-4.116,2.534-9.229,0.17-13.406
		C239.232,2.578,234.81,0,230.017,0h-78.904H72.208c-4.788,0-9.21,2.578-11.574,6.746c-2.36,4.177-2.294,9.29,0.175,13.406
		l31.058,51.77c10.042,16.735,9.041,37.866-2.539,53.586l-29.494,46.588c-14.694,23.219-22.498,50.135-22.498,77.62v207.857
		c0,30.061,24.368,54.426,54.426,54.426h118.706c30.058,0,54.426-24.365,54.426-54.426V249.717c0-27.484-7.804-54.4-22.499-77.62
		L212.901,125.509z" style="fill: #0C8BBA;"></path>
	<path class="st0" d="M286.929,361.244v25.597c0,35.62,19.838,66.599,49.07,82.505v28.427H425.6v-28.427
		c29.228-15.906,49.065-46.885,49.065-82.505v-25.597H286.929z" style="fill: #0C8BBA;"></path>
</g>
</svg>
